# xmcd CD database file
#
# Track frame offsets:
#	150
#	19432
#	36008
#	61955
#	83125
#	96864
#	110349
#	128342
#	148874
#	171684
#
# Disc length: 2820 seconds
#
# Revision: 1
# Processed by: cddbd v1.5.2PL0 Copyright (c) Steve Scherf et al.
# Submitted via: CDex 1.51
#
DISCID=870b020a
DTITLE=Baskery - New Friends
DYEAR=2011
DGENRE=Country
TTITLE0=Shame and Dance
TTITLE1=Nobody Nice
TTITLE2=The Queen and Drone
TTITLE3=Rivers Of Home
TTITLE4=Mortal
TTITLE5=Throw A Bone
TTITLE6=Rotten Boys
TTITLE7=Beat Up The Blues
TTITLE8=As Simple As This
TTITLE9=Tendencies
EXTD=YEAR: 2011
EXTT0=
EXTT1=
EXTT2=
EXTT3=
EXTT4=
EXTT5=
EXTT6=
EXTT7=
EXTT8=
EXTT9=
PLAYORDER=
